<?xml version="1.0" standalone="no"?><!DOCTYPE svg PUBLIC "-//W3C//DTD SVG 1.1//EN" "http://www.w3.org/Graphics/SVG/1.1/DTD/svg11.dtd"><svg t="1652767656931" class="icon" viewBox="0 0 1024 1024" version="1.1" xmlns="http://www.w3.org/2000/svg" p-id="1453" xmlns:xlink="http://www.w3.org/1999/xlink" width="200" height="200"><defs><style type="text/css">@font-face { font-family: feedback-iconfont; src: url("//at.alicdn.com/t/font_1031158_u69w8yhxdu.woff2?t=1630033759944") format("woff2"), url("//at.alicdn.com/t/font_1031158_u69w8yhxdu.woff?t=1630033759944") format("woff"), url("//at.alicdn.com/t/font_1031158_u69w8yhxdu.ttf?t=1630033759944") format("truetype"); }
</style></defs><path d="M754.944 525.653333a36.096 36.096 0 0 0 0-55.637333L332.032 96.853333a48.810667 48.810667 0 0 0-62.976 0 36.096 36.096 0 0 0 0 55.637334l422.912 373.077333c17.408 15.36 45.568 15.36 62.976 0z" fill="#2E6FF0" p-id="1454"></path><path d="M754.944 498.346667a48.810667 48.810667 0 0 0-62.976 0l-422.912 373.162666a36.096 36.096 0 0 0 0 55.637334c17.408 15.36 45.568 15.36 62.976 0l422.912-373.162667a36.096 36.096 0 0 0 0-55.552z" fill="#2E6FF0" p-id="1455"></path></svg>